<svg version="1.1" xmlns="http://www.w3.org/2000/svg" xmlns:xlink="http://www.w3.org/1999/xlink" width="32px" height="32px" viewBox="0,0,256,256"><g fill="none" fill-rule="nonzero" stroke="none" stroke-width="1" stroke-linecap="butt" stroke-linejoin="miter" stroke-miterlimit="10" stroke-dasharray="" stroke-dashoffset="0" font-family="none" font-weight="none" font-size="none" text-anchor="none" style="mix-blend-mode: normal"><g transform="scale(8,8)"><g id="Layer_2" fill="#ffffff"><path d="M16,29c-7.1797,0 -13,-5.8203 -13,-13c0,-7.1797 5.8203,-13 13,-13c7.1797,0 13,5.8203 13,13c0,7.1797 -5.8203,13 -13,13zM16,5c-6.07513,0 -11,4.92487 -11,11c0,6.07513 4.92487,11 11,11c6.07513,0 11,-4.92487 11,-11c0,-6.07513 -4.92487,-11 -11,-11z"></path><path d="M16,23c-0.55228,0 -1,-0.44772 -1,-1v-12c0,-0.55228 0.44772,-1 1,-1c0.55228,0 1,0.44772 1,1v12c0,0.55228 -0.44772,1 -1,1z"></path><path d="M22,17h-12c-0.55228,0 -1,-0.44772 -1,-1c0,-0.55228 0.44772,-1 1,-1h12c0.55228,0 1,0.44772 1,1c0,0.55228 -0.44772,1 -1,1z"></path></g><g id="frame" fill="none"><rect x="0" y="0" width="32" height="32"></rect></g></g></g></svg>