<svg version="1.1" xmlns="http://www.w3.org/2000/svg" xmlns:xlink="http://www.w3.org/1999/xlink" width="32px" height="32px" viewBox="0,0,256,256"><g fill="none" fill-rule="nonzero" stroke="none" stroke-width="1" stroke-linecap="butt" stroke-linejoin="miter" stroke-miterlimit="10" stroke-dasharray="" stroke-dashoffset="0" font-family="none" font-weight="none" font-size="none" text-anchor="none" style="mix-blend-mode: normal"><g transform="scale(8,8)"><g id="Layer_2" fill="#ffffff"><path d="M28,10h-24c-0.55228,0 -1,-0.44772 -1,-1c0,-0.55228 0.44772,-1 1,-1h24c0.55228,0 1,0.44772 1,1c0,0.55228 -0.44772,1 -1,1z"></path><path d="M28,17h-24c-0.55228,0 -1,-0.44772 -1,-1c0,-0.55228 0.44772,-1 1,-1h24c0.55228,0 1,0.44772 1,1c0,0.55228 -0.44772,1 -1,1z"></path><path d="M28,24h-24c-0.55228,0 -1,-0.44772 -1,-1c0,-0.55228 0.44772,-1 1,-1h24c0.55228,0 1,0.44772 1,1c0,0.55228 -0.44772,1 -1,1z"></path></g><g id="frame" fill="none"><rect x="0" y="0" width="32" height="32"></rect></g></g></g></svg>