<svg version="1.1" xmlns="http://www.w3.org/2000/svg" xmlns:xlink="http://www.w3.org/1999/xlink" width="32px" height="32px" viewBox="0,0,256,256"><g fill="#ffffff" fill-rule="nonzero" stroke="none" stroke-width="1" stroke-linecap="butt" stroke-linejoin="miter" stroke-miterlimit="10" stroke-dasharray="" stroke-dashoffset="0" font-family="none" font-weight="none" font-size="none" text-anchor="none" style="mix-blend-mode: normal"><g transform="scale(8,8)"><g id="about"><path d="M16,16c3.86599,0 7,-3.13401 7,-7c0,-3.86599 -3.13401,-7 -7,-7c-3.86599,0 -7,3.13401 -7,7c0,3.86599 3.13401,7 7,7zM16,4c2.76142,0 5,2.23858 5,5c0,2.76142 -2.23858,5 -5,5c-2.76142,0 -5,-2.23858 -5,-5c0,-2.76142 2.23858,-5 5,-5z"></path><path d="M17,18h-2c-6.07513,0 -11,4.92487 -11,11c0,0.55228 0.44772,1 1,1h22c0.55228,0 1,-0.44772 1,-1c0,-6.07513 -4.92487,-11 -11,-11zM6.06,28c0.50911,-4.55359 4.35804,-7.99783 8.94,-8h2c4.58196,0.00217 8.43089,3.44641 8.94,8z"></path></g></g></g></svg>