<svg version="1.1" xmlns="http://www.w3.org/2000/svg" xmlns:xlink="http://www.w3.org/1999/xlink" width="22.006px" height="22.006px" viewBox="0,0,256,256"><g fill="none" fill-rule="nonzero" stroke="none" stroke-width="1" stroke-linecap="butt" stroke-linejoin="miter" stroke-miterlimit="10" stroke-dasharray="" stroke-dashoffset="0" font-family="none" font-weight="none" font-size="none" text-anchor="none" style="mix-blend-mode: normal"><g transform="scale(11.63319,11.63319)"><g fill="#ffffff"><g><path d="M4.63,6.045c0.394,0.393 1.028,0.399 1.421,0.006c0.39,-0.39 0.393,-1.021 -0.007,-1.421l-1.4,-1.4c-0.395,-0.395 -1.027,-0.401 -1.421,-0.007c-0.391,0.39 -0.394,1.02 0.007,1.421z"></path><path d="M20.997,10.003h-1.98c-0.559,0 -1.011,0.444 -1.011,1c0,0.553 0.443,1 1.011,1h1.98c0.559,0 1.009,-0.443 1.009,-1c0,-0.552 -0.444,-1 -1.009,-1z"></path><path d="M4,11.003c0,-0.552 -0.444,-1 -1.01,-1h-1.981c-0.558,0 -1.009,0.444 -1.009,1c0,0.553 0.443,1 1.009,1h1.981c0.558,0 1.01,-0.443 1.01,-1z"></path><path d="M11.003,5c-3.313,0 -6,2.687 -6,6c0,3.313 2.687,6 6,6c3.312,0 6,-2.687 6,-6c0,-3.313 -2.688,-6 -6,-6zM11.003,15c-2.209,0 -4,-1.791 -4,-4c0,-2.209 1.791,-4 4,-4c2.209,0 4,1.791 4,4c0,2.209 -1.791,4 -4,4z"></path><path d="M4.63,15.962l-1.4,1.4c-0.395,0.395 -0.401,1.027 -0.007,1.421c0.391,0.39 1.021,0.393 1.421,-0.007l1.4,-1.4c0.395,-0.395 0.401,-1.027 0.007,-1.421c-0.391,-0.392 -1.021,-0.393 -1.421,0.007z"></path><path d="M17.376,6.045l1.4,-1.401c0.395,-0.395 0.399,-1.027 0.007,-1.421c-0.392,-0.39 -1.021,-0.393 -1.421,0.007l-1.4,1.4c-0.395,0.395 -0.4,1.028 -0.007,1.421c0.392,0.39 1.021,0.393 1.421,-0.006z"></path><path d="M11.003,18.006c-0.553,0 -1,0.444 -1,1.011v1.98c0,0.559 0.444,1.009 1,1.009c0.553,0 1,-0.442 1,-1.009v-1.98c0,-0.559 -0.443,-1.011 -1,-1.011z"></path><path d="M17.376,15.962c-0.395,-0.395 -1.027,-0.4 -1.421,-0.007c-0.39,0.392 -0.394,1.021 0.007,1.421l1.4,1.4c0.395,0.395 1.027,0.399 1.421,0.007c0.391,-0.39 0.394,-1.021 -0.007,-1.421z"></path><path d="M11.003,4c0.553,0 1,-0.443 1,-1.01v-1.98c0,-0.558 -0.443,-1.01 -1,-1.01c-0.553,0 -1,0.444 -1,1.01v1.98c0,0.558 0.444,1.01 1,1.01z"></path></g></g><g fill="#000000" font-family="Inter, apple-system, BlinkMacSystemFont, &quot;Helvetica Neue&quot;, &quot;Segoe UI&quot;, &quot;Fira Sans&quot;, Roboto, Oxygen, Ubuntu, &quot;Droid Sans&quot;, Arial, sans-serif" font-weight="400" font-size="16" text-anchor="start"></g><g fill="#000000" font-family="Inter, apple-system, BlinkMacSystemFont, &quot;Helvetica Neue&quot;, &quot;Segoe UI&quot;, &quot;Fira Sans&quot;, Roboto, Oxygen, Ubuntu, &quot;Droid Sans&quot;, Arial, sans-serif" font-weight="400" font-size="16" text-anchor="start"></g><g fill="#000000" font-family="Inter, apple-system, BlinkMacSystemFont, &quot;Helvetica Neue&quot;, &quot;Segoe UI&quot;, &quot;Fira Sans&quot;, Roboto, Oxygen, Ubuntu, &quot;Droid Sans&quot;, Arial, sans-serif" font-weight="400" font-size="16" text-anchor="start"></g><g fill="#000000" font-family="Inter, apple-system, BlinkMacSystemFont, &quot;Helvetica Neue&quot;, &quot;Segoe UI&quot;, &quot;Fira Sans&quot;, Roboto, Oxygen, Ubuntu, &quot;Droid Sans&quot;, Arial, sans-serif" font-weight="400" font-size="16" text-anchor="start"></g><g fill="#000000" font-family="Inter, apple-system, BlinkMacSystemFont, &quot;Helvetica Neue&quot;, &quot;Segoe UI&quot;, &quot;Fira Sans&quot;, Roboto, Oxygen, Ubuntu, &quot;Droid Sans&quot;, Arial, sans-serif" font-weight="400" font-size="16" text-anchor="start"></g><g fill="#000000" font-family="Inter, apple-system, BlinkMacSystemFont, &quot;Helvetica Neue&quot;, &quot;Segoe UI&quot;, &quot;Fira Sans&quot;, Roboto, Oxygen, Ubuntu, &quot;Droid Sans&quot;, Arial, sans-serif" font-weight="400" font-size="16" text-anchor="start"></g><g fill="#000000" font-family="Inter, apple-system, BlinkMacSystemFont, &quot;Helvetica Neue&quot;, &quot;Segoe UI&quot;, &quot;Fira Sans&quot;, Roboto, Oxygen, Ubuntu, &quot;Droid Sans&quot;, Arial, sans-serif" font-weight="400" font-size="16" text-anchor="start"></g><g fill="#000000" font-family="Inter, apple-system, BlinkMacSystemFont, &quot;Helvetica Neue&quot;, &quot;Segoe UI&quot;, &quot;Fira Sans&quot;, Roboto, Oxygen, Ubuntu, &quot;Droid Sans&quot;, Arial, sans-serif" font-weight="400" font-size="16" text-anchor="start"></g><g fill="#000000" font-family="Inter, apple-system, BlinkMacSystemFont, &quot;Helvetica Neue&quot;, &quot;Segoe UI&quot;, &quot;Fira Sans&quot;, Roboto, Oxygen, Ubuntu, &quot;Droid Sans&quot;, Arial, sans-serif" font-weight="400" font-size="16" text-anchor="start"></g><g fill="#000000" font-family="Inter, apple-system, BlinkMacSystemFont, &quot;Helvetica Neue&quot;, &quot;Segoe UI&quot;, &quot;Fira Sans&quot;, Roboto, Oxygen, Ubuntu, &quot;Droid Sans&quot;, Arial, sans-serif" font-weight="400" font-size="16" text-anchor="start"></g><g fill="#000000" font-family="Inter, apple-system, BlinkMacSystemFont, &quot;Helvetica Neue&quot;, &quot;Segoe UI&quot;, &quot;Fira Sans&quot;, Roboto, Oxygen, Ubuntu, &quot;Droid Sans&quot;, Arial, sans-serif" font-weight="400" font-size="16" text-anchor="start"></g><g fill="#000000" font-family="Inter, apple-system, BlinkMacSystemFont, &quot;Helvetica Neue&quot;, &quot;Segoe UI&quot;, &quot;Fira Sans&quot;, Roboto, Oxygen, Ubuntu, &quot;Droid Sans&quot;, Arial, sans-serif" font-weight="400" font-size="16" text-anchor="start"></g><g fill="#000000" font-family="Inter, apple-system, BlinkMacSystemFont, &quot;Helvetica Neue&quot;, &quot;Segoe UI&quot;, &quot;Fira Sans&quot;, Roboto, Oxygen, Ubuntu, &quot;Droid Sans&quot;, Arial, sans-serif" font-weight="400" font-size="16" text-anchor="start"></g><g fill="#000000" font-family="Inter, apple-system, BlinkMacSystemFont, &quot;Helvetica Neue&quot;, &quot;Segoe UI&quot;, &quot;Fira Sans&quot;, Roboto, Oxygen, Ubuntu, &quot;Droid Sans&quot;, Arial, sans-serif" font-weight="400" font-size="16" text-anchor="start"></g><g fill="#000000" font-family="Inter, apple-system, BlinkMacSystemFont, &quot;Helvetica Neue&quot;, &quot;Segoe UI&quot;, &quot;Fira Sans&quot;, Roboto, Oxygen, Ubuntu, &quot;Droid Sans&quot;, Arial, sans-serif" font-weight="400" font-size="16" text-anchor="start"></g></g></g></svg>